control3min_grf.mot
version=1
nRows=10
nColumns 19
inDegrees=yes
endheader
time	1_ground_force_vx	1_ground_force_vy	1_ground_force_vz	1_ground_force_px	1_ground_force_py	1_ground_force_pz	1_ground_torque_x	1_ground_torque_y	1_ground_torque_z	2_ground_force_vx	2_ground_force_vy	2_ground_force_vz	2_ground_force_px	2_ground_force_py	2_ground_force_pz	2_ground_torque_x	2_ground_torque_y	2_ground_torque_z
            1.253500	            1.759137	         1361.959061	          -90.281382	           -0.167417	            0.006166	           -0.389268	            0.004702	            3.640136	           -0.241297	          -10.788205	         1327.123633	          111.266104	           -0.179861	            0.005969	           -0.735384	            0.035916	           -4.418265	           -0.370428
            1.254000	            1.485744	         1359.072791	          -89.834516	           -0.167312	            0.006167	           -0.389442	            0.004032	            3.688456	           -0.243806	          -11.202686	         1325.097429	          110.930566	           -0.179733	            0.005969	           -0.735332	            0.038070	           -4.503010	           -0.376970
            1.254500	            0.984305	         1357.265895	          -88.832155	           -0.167259	            0.006167	           -0.389534	            0.002825	            3.895182	           -0.254937	          -11.947694	         1323.806179	          110.785493	           -0.179686	            0.005969	           -0.735277	            0.039994	           -4.431342	           -0.370846
            1.255000	            0.894656	         1355.460210	          -88.151815	           -0.167054	            0.006167	           -0.389539	            0.002708	            4.103214	           -0.266851	          -11.937787	         1321.044509	          110.634861	           -0.179575	            0.005969	           -0.735285	            0.040176	           -4.445941	           -0.372339
            1.255500	            0.117769	         1353.293210	          -87.333758	           -0.166992	            0.006168	           -0.389661	            0.000350	            4.019826	           -0.259416	          -12.214521	         1319.756792	          109.973387	           -0.179503	            0.005970	           -0.735260	            0.040178	           -4.341158	           -0.361742
            1.256000	           -0.384662	         1351.307665	          -86.744886	           -0.166956	            0.006168	           -0.389674	           -0.001130	            3.969743	           -0.254831	          -12.674587	         1317.363006	          109.495764	           -0.179454	            0.005970	           -0.735208	            0.041236	           -4.285927	           -0.356235
            1.256500	           -0.886248	         1349.681140	          -85.787605	           -0.166917	            0.006168	           -0.389597	           -0.002480	            3.777480	           -0.240102	          -13.279168	         1316.073267	          109.069063	           -0.179303	            0.005970	           -0.735210	            0.043183	           -4.279796	           -0.354686
            1.257000	           -1.067418	         1346.974079	          -85.110918	           -0.166721	            0.006168	           -0.389609	           -0.002989	            3.771474	           -0.238307	          -13.834823	         1314.230545	          108.828099	           -0.179170	            0.005970	           -0.735171	            0.045347	           -4.307707	           -0.356710
            1.257500	           -1.661419	         1343.727005	          -84.573080	           -0.166590	            0.006169	           -0.389820	           -0.004766	            3.854597	           -0.242605	          -14.108131	         1312.021104	          108.397973	           -0.179134	            0.005971	           -0.735261	            0.047249	           -4.394003	           -0.363028
            1.258000	           -2.164095	         1342.462597	          -84.026969	           -0.166576	            0.006168	           -0.389763	           -0.006549	            4.062683	           -0.254290	          -14.428852	         1309.994981	          108.203172	           -0.179026	            0.005971	           -0.735180	            0.047916	           -4.350263	           -0.359324
